<?xml version="1.0" encoding="utf-8"?>
<!DOCTYPE svg PUBLIC "-//W3C//DTD SVG 1.0//EN" "http://www.w3.org/TR/2001/REC-SVG-20010904/DTD/svg10.dtd">
<svg version="1.0" xmlns="http://www.w3.org/2000/svg" width="499px" height="500px" viewBox="0 0 499 500" preserveAspectRatio="xMidYMid meet">
 <g fill="#bf040a">
  <path d="M129.5 420 c-9.3 -0.3 -17.9 -1 -19 -1.5 -4.1 -1.8 -9.7 -6.9 -11.8 -10.9 -3 -5.6 -2.8 -13.9 1.8 -55.1 2 -18.1 4 -37.3 4.5 -42.5 0.5 -5.2 1.4 -12.9 2 -17 0.6 -4.1 1.5 -12.2 2 -18 0.5 -5.8 1.4 -14.3 1.9 -19 0.6 -4.7 1.5 -12.8 2 -18 0.6 -5.2 1.5 -13.3 2.1 -18 0.6 -4.7 1.9 -17.3 3 -28 3.3 -32.1 4.8 -44.7 6.1 -48.9 1.6 -5.4 8 -11.6 14.5 -14 5.1 -2 8.1 -2 111.6 -2.1 78.8 0 107.7 0.3 111.6 1.2 7.5 1.6 14.4 8.2 16.6 15.8 0.9 3 3 18.5 4.6 34.5 1.6 15.9 4.3 41.2 6 56 1.6 14.9 5 45.9 7.5 69 2.5 23.1 5.2 48.3 6.1 56 0.8 7.7 1.9 17.6 2.4 22 0.5 4.4 1.2 9.5 1.6 11.3 1.2 5.8 -1.4 13.8 -6.3 19.2 -8.2 9.2 2.6 8.5 -133.8 8.6 -66 0 -127.6 -0.2 -137 -0.6z m142.6 -90.5 c16.6 -3.1 31.5 -9.1 44.4 -17.8 8.5 -5.7 16.5 -12.7 16.5 -14.4 0 -1.6 -11.4 -13.9 -14.4 -15.5 -1.4 -0.8 -2.5 -0.4 -5 2 -7.3 6.8 -20.9 14.7 -31.7 18.1 -19.3 6.3 -37.2 6.5 -57.9 0.9 -11.9 -3.2 -29.8 -13.1 -34.9 -19.1 -2.9 -3.5 -6.3 -2.1 -12.9 5.2 -3.4 3.8 -6.2 7.6 -6.2 8.3 0.1 2.1 3.1 5.1 11 10.9 15 11.1 29.8 17.7 47 20.9 12.2 2.3 32.9 2.5 44.1 0.5z m-43.1 -74.9 c9.2 -6.1 10.6 -20.7 2.8 -28.3 -4.6 -4.5 -10.2 -6.6 -15.2 -5.9 -9.1 1.4 -15.6 7.8 -17 16.8 -1.2 7.7 5.1 17.3 13.2 19.9 4.4 1.4 12.1 0.2 16.2 -2.5z m81.8 -15 c0.2 -5.7 -0.1 -8.2 -1 -8.7 -1.9 -1.3 -46.6 -1.1 -48.9 0.1 -1.6 0.9 -1.9 2.2 -1.9 7.8 0 4 0.5 7.3 1.2 8 0.9 0.9 7.5 1.2 25.8 1 l24.5 -0.3 0.3 -7.9z"/>
  <path d="M189.7 101.8 c-0.7 -10.3 0.2 -26.9 1.8 -32.8 2.9 -10.5 8.5 -20 16.5 -28 12.3 -12.4 25.9 -18 43.3 -18 20.8 0 36.2 7.6 48.4 23.8 10.3 13.7 12.7 21.9 12.8 44.7 l0 16 -9 0 -9 0 -0.1 -15.5 c-0.1 -16.5 -0.4 -18.9 -3.6 -25.9 -3.4 -7.6 -10.1 -16.1 -12.5 -16.1 -0.7 0 -1.3 -0.4 -1.3 -0.9 0 -1.3 -11.8 -6.9 -16 -7.5 -1.9 -0.3 -5.2 -0.9 -7.3 -1.2 -2.1 -0.4 -6.4 -0.1 -9.5 0.6 -14.8 3.4 -26.4 12.2 -32.3 24.5 -3.3 6.9 -3.3 7.1 -3.7 24.1 l-0.4 17.1 -6.6 0.7 c-11.7 1.1 -11 1.4 -11.5 -5.6z"/>
 </g>
</svg>